<?xml version="1.0" encoding="UTF-8"?>
<svg id="Ebene_1" data-name="Ebene 1" xmlns="http://www.w3.org/2000/svg" version="1.1" viewBox="0 0 24 24">
  <defs>
    <style>
      .cls-1 {
        fill: #fff;
        stroke-width: 0px;
      }
    </style>
  </defs>
  <path class="cls-1" d="M11.98,2c-.16,0-.31.06-.44.16l-7.11,5.6c-.9.71-1.43,1.8-1.43,2.95v9.54c0,.68.57,1.25,1.25,1.25h5c.68,0,1.25-.57,1.25-1.25v-5c0-.15.1-.25.25-.25h2.5c.15,0,.25.1.25.25v5c0,.68.57,1.25,1.25,1.25h5c.68,0,1.25-.57,1.25-1.25v-9.54c0-1.15-.53-2.23-1.43-2.95l-7.11-5.6c-.14-.11-.31-.17-.49-.16ZM12,3.71l6.64,5.23c.54.43.86,1.08.86,1.77v9.29h-4.5v-4.75c0-.96-.79-1.75-1.75-1.75h-2.5c-.96,0-1.75.79-1.75,1.75v4.75h-4.5v-9.29c0-.69.32-1.34.86-1.77l6.64-5.23Z"/>
</svg>