<?xml version="1.0" encoding="UTF-8"?>
<svg id="Layer_1" data-name="Layer 1" xmlns="http://www.w3.org/2000/svg" version="1.1" viewBox="0 0 92.26 122.88">
  <defs>
    <style>
      .cls-1 {
        fill: #fff;
        stroke-width: 0px;
      }
    </style>
  </defs>
  <path class="cls-1" d="M47.49,116.85c6.31-4.01,11.98-8.87,16.92-14.29,10.73-11.75,17.97-26.11,20.87-40.2,2.88-13.91,1.52-27.54-4.85-38.06-1.81-3.02-4.08-5.78-6.78-8.26-7.74-7.05-16.6-10.41-25.52-10.5-9.37-.07-18.87,3.45-27.27,10.14-3.58,2.86-6.53,6.15-8.82,9.78-5.9,9.28-7.69,20.8-5.74,32.85,1.97,12.23,7.78,25.02,17.04,36.61,6.44,8.08,14.54,15.58,24.18,21.91l-.03.02h0ZM46.13,21.16c7.05,0,13.45,2.86,18.06,7.49,4.63,4.63,7.49,11,7.49,18.06s-2.86,13.45-7.49,18.06c-4.63,4.63-11,7.49-18.06,7.49s-13.45-2.86-18.06-7.49c-4.63-4.63-7.49-11-7.49-18.06s2.86-13.45,7.49-18.06c4.63-4.63,11-7.49,18.06-7.49h0ZM60.51,32.33c-3.67-3.67-8.78-5.97-14.38-5.97s-10.71,2.27-14.38,5.97c-3.67,3.67-5.97,8.78-5.97,14.38s2.27,10.71,5.97,14.38c3.67,3.67,8.78,5.97,14.38,5.97s10.71-2.27,14.38-5.97c3.67-3.67,5.97-8.78,5.97-14.38,0-5.63-2.27-10.71-5.97-14.38h0ZM68.52,106.27c-5.6,6.12-12.09,11.61-19.42,16.06-.88.66-2.13.75-3.13.11-10.8-6.87-19.85-15.13-26.99-24.09C9.15,86.02,2.94,72.34.83,59.16c-2.15-13.36-.14-26.2,6.51-36.68,2.63-4.13,5.97-7.89,10.07-11.14C26.78,3.88,37.51-.07,48.17,0c10.28.09,20.42,3.9,29.22,11.93,3.09,2.81,5.67,5.99,7.78,9.48,7.15,11.77,8.69,26.81,5.56,42.01-3.11,15.04-10.8,30.33-22.18,42.8l-.03.05h0Z"/>
</svg>